<svg xmlns="http://www.w3.org/2000/svg" xmlns:xlink="http://www.w3.org/1999/xlink" viewBox="0 0 400 345.79"><defs><style>.cls-1{mask:url(#mask);filter:url(#luminosity-noclip-2);}.cls-12,.cls-16,.cls-2,.cls-20,.cls-24,.cls-28,.cls-32,.cls-36,.cls-40,.cls-44,.cls-48,.cls-6,.cls-8{mix-blend-mode:multiply;}.cls-2{fill:url(#linear-gradient);}.cls-3{mask:url(#mask-2);}.cls-4{fill:url(#linear-gradient-2);}.cls-5{mask:url(#mask-3);filter:url(#luminosity-noclip-26);}.cls-6{fill:url(#linear-gradient-3);}.cls-7{mask:url(#mask-4);filter:url(#luminosity-noclip-5);}.cls-8{fill:url(#linear-gradient-4);}.cls-9{mask:url(#mask-5);}.cls-10{fill:url(#linear-gradient-5);}.cls-11{mask:url(#mask-6);filter:url(#luminosity-noclip-7);}.cls-12{fill:url(#linear-gradient-6);}.cls-13{mask:url(#mask-7);}.cls-14{fill:url(#linear-gradient-7);}.cls-15{mask:url(#mask-8);filter:url(#luminosity-noclip-9);}.cls-16{fill:url(#linear-gradient-8);}.cls-17{mask:url(#mask-9);}.cls-18{fill:url(#linear-gradient-9);}.cls-19{mask:url(#mask-10);filter:url(#luminosity-noclip-11);}.cls-20{fill:url(#linear-gradient-10);}.cls-21{mask:url(#mask-11);}.cls-22{fill:url(#linear-gradient-11);}.cls-23,.cls-27{mask:url(#mask-12);}.cls-23{filter:url(#luminosity-noclip-13);}.cls-24{fill:url(#linear-gradient-12);}.cls-25{mask:url(#mask-13);}.cls-26{fill:url(#linear-gradient-13);}.cls-27{filter:url(#luminosity-noclip-15);}.cls-28{fill:url(#linear-gradient-14);}.cls-29{mask:url(#mask-15);}.cls-30{fill:url(#linear-gradient-15);}.cls-31{mask:url(#mask-16);filter:url(#luminosity-noclip-17);}.cls-32{fill:url(#linear-gradient-16);}.cls-33{mask:url(#mask-17);}.cls-34{fill:url(#linear-gradient-17);}.cls-35,.cls-39{mask:url(#mask-18);}.cls-35{filter:url(#luminosity-noclip-19);}.cls-36{fill:url(#linear-gradient-18);}.cls-37{mask:url(#mask-19);}.cls-38{fill:url(#linear-gradient-19);}.cls-39{filter:url(#luminosity-noclip-21);}.cls-40{fill:url(#linear-gradient-20);}.cls-41{mask:url(#mask-21);}.cls-42{fill:url(#linear-gradient-21);}.cls-43{mask:url(#mask-22);filter:url(#luminosity-noclip-23);}.cls-44{fill:url(#linear-gradient-22);}.cls-45{mask:url(#mask-23);}.cls-46{fill:url(#linear-gradient-23);}.cls-47{mask:url(#mask-24);filter:url(#luminosity-noclip-25);}.cls-48{fill:url(#linear-gradient-24);}.cls-49{mask:url(#mask-25);}.cls-50{fill:url(#linear-gradient-25);}.cls-51{mask:url(#mask-26);}.cls-52{fill:url(#linear-gradient-26);}.cls-53{fill:url(#linear-gradient-27);}.cls-54{mask:url(#mask-27);}.cls-55{fill:#333;}.cls-56{fill:url(#linear-gradient-28);}.cls-57{mask:url(#mask-28);}.cls-58{fill:url(#linear-gradient-29);}.cls-59{mask:url(#mask-29);}.cls-60{fill:url(#linear-gradient-30);}.cls-61{mask:url(#mask-30);}.cls-62{fill:#060d64;}.cls-63{mask:url(#mask-31);}.cls-64{fill:#bfe6ed;}.cls-65{fill:url(#linear-gradient-31);}.cls-66{mask:url(#mask-32);}.cls-67{mask:url(#mask-33);}.cls-68{mask:url(#mask-34);}.cls-69{fill:url(#linear-gradient-32);}.cls-70{mask:url(#mask-35);}.cls-71{mask:url(#mask-36);}.cls-72{fill:url(#linear-gradient-33);}.cls-73{mask:url(#mask-37);}.cls-74{mask:url(#mask-38);}.cls-75{fill:#01052d;}.cls-76{mask:url(#mask-39);}.cls-77{fill:#fff;}.cls-78{filter:url(#luminosity-noclip-24);}.cls-79{filter:url(#luminosity-noclip-22);}.cls-80{filter:url(#luminosity-noclip-18);}.cls-81{filter:url(#luminosity-noclip-16);}.cls-82{filter:url(#luminosity-noclip-12);}.cls-83{filter:url(#luminosity-noclip-10);}.cls-84{filter:url(#luminosity-noclip-8);}.cls-85{filter:url(#luminosity-noclip-6);}.cls-86{filter:url(#luminosity-noclip-4);}.cls-87{filter:url(#luminosity-noclip-3);}.cls-88{filter:url(#luminosity-noclip);}</style><filter id="luminosity-noclip" x="28.4" y="-8508.45" width="366.72" height="32766" filterUnits="userSpaceOnUse" color-interpolation-filters="sRGB"><feFlood flood-color="#fff" result="bg"/><feBlend in="SourceGraphic" in2="bg"/></filter><mask id="mask" x="28.4" y="-8508.45" width="366.72" height="32766" maskUnits="userSpaceOnUse"><g class="cls-88"/></mask><linearGradient id="linear-gradient" x1="-1426.98" y1="-54.14" x2="502.77" y2="547.94" gradientTransform="matrix(1, 0, 0, -1, 0, 634.91)" gradientUnits="userSpaceOnUse"><stop offset="0" stop-color="#fff"/><stop offset="1"/></linearGradient><filter id="luminosity-noclip-2" x="28.4" y="25.56" width="366.72" height="304.4" filterUnits="userSpaceOnUse" color-interpolation-filters="sRGB"><feFlood flood-color="#fff" result="bg"/><feBlend in="SourceGraphic" in2="bg"/></filter><mask id="mask-2" x="28.4" y="25.56" width="366.72" height="304.4" maskUnits="userSpaceOnUse"><g class="cls-1"><rect class="cls-2" x="28.4" y="25.56" width="366.72" height="304.4"/></g></mask><linearGradient id="linear-gradient-2" x1="-1426.98" y1="-54.14" x2="502.77" y2="547.94" gradientTransform="matrix(1, 0, 0, -1, 0, 634.91)" gradientUnits="userSpaceOnUse"><stop offset="0" stop-color="#fff"/><stop offset="1" stop-color="#fff"/></linearGradient><filter id="luminosity-noclip-3" x="175.17" y="-8508.45" width="36.25" height="32766" filterUnits="userSpaceOnUse" color-interpolation-filters="sRGB"><feFlood flood-color="#fff" result="bg"/><feBlend in="SourceGraphic" in2="bg"/></filter><mask id="mask-3" x="175.17" y="-8508.45" width="36.25" height="32766" maskUnits="userSpaceOnUse"><g class="cls-87"/></mask><linearGradient id="linear-gradient-3" x1="215.34" y1="413.59" x2="188.42" y2="313.15" xlink:href="#linear-gradient"/><filter id="luminosity-noclip-4" x="28.33" y="-8508.45" width="309.69" height="32766" filterUnits="userSpaceOnUse" color-interpolation-filters="sRGB"><feFlood flood-color="#fff" result="bg"/><feBlend in="SourceGraphic" in2="bg"/></filter><mask id="mask-4" x="28.33" y="-8508.45" width="309.69" height="32766" maskUnits="userSpaceOnUse"><g class="cls-86"/></mask><linearGradient id="linear-gradient-4" x1="782.05" y1="1101.94" x2="65.01" y2="384.89" xlink:href="#linear-gradient"/><filter id="luminosity-noclip-5" x="28.33" y="20.95" width="309.69" height="221.78" filterUnits="userSpaceOnUse" color-interpolation-filters="sRGB"><feFlood flood-color="#fff" result="bg"/><feBlend in="SourceGraphic" in2="bg"/></filter><mask id="mask-5" x="28.33" y="20.95" width="309.69" height="221.78" maskUnits="userSpaceOnUse"><g class="cls-7"><rect class="cls-8" x="28.33" y="20.95" width="309.69" height="221.78"/></g></mask><linearGradient id="linear-gradient-5" x1="782.05" y1="1101.94" x2="65.01" y2="384.89" xlink:href="#linear-gradient-2"/><filter id="luminosity-noclip-6" x="75.25" y="-8508.45" width="122.89" height="32766" filterUnits="userSpaceOnUse" color-interpolation-filters="sRGB"><feFlood flood-color="#fff" result="bg"/><feBlend in="SourceGraphic" in2="bg"/></filter><mask id="mask-6" x="75.25" y="-8508.45" width="122.89" height="32766" maskUnits="userSpaceOnUse"><g class="cls-85"/></mask><linearGradient id="linear-gradient-6" x1="252.13" y1="544.42" x2="84" y2="511.47" xlink:href="#linear-gradient"/><filter id="luminosity-noclip-7" x="75.25" y="88.6" width="122.89" height="49.02" filterUnits="userSpaceOnUse" color-interpolation-filters="sRGB"><feFlood flood-color="#fff" result="bg"/><feBlend in="SourceGraphic" in2="bg"/></filter><mask id="mask-7" x="75.25" y="88.6" width="122.89" height="49.02" maskUnits="userSpaceOnUse"><g class="cls-11"><rect class="cls-12" x="75.25" y="88.6" width="122.89" height="49.02"/></g></mask><linearGradient id="linear-gradient-7" x1="252.13" y1="544.42" x2="84" y2="511.47" xlink:href="#linear-gradient-2"/><filter id="luminosity-noclip-8" x="1.73" y="-8508.45" width="80.07" height="32766" filterUnits="userSpaceOnUse" color-interpolation-filters="sRGB"><feFlood flood-color="#fff" result="bg"/><feBlend in="SourceGraphic" in2="bg"/></filter><mask id="mask-8" x="1.73" y="-8508.45" width="80.07" height="32766" maskUnits="userSpaceOnUse"><g class="cls-84"/></mask><linearGradient id="linear-gradient-8" x1="-35.68" y1="662.86" x2="81.35" y2="545.84" xlink:href="#linear-gradient"/><filter id="luminosity-noclip-9" x="1.73" y="-0.49" width="80.07" height="99.97" filterUnits="userSpaceOnUse" color-interpolation-filters="sRGB"><feFlood flood-color="#fff" result="bg"/><feBlend in="SourceGraphic" in2="bg"/></filter><mask id="mask-9" x="1.73" y="-0.49" width="80.07" height="99.97" maskUnits="userSpaceOnUse"><g class="cls-15"><rect class="cls-16" x="1.73" y="-0.49" width="80.07" height="99.97"/></g></mask><linearGradient id="linear-gradient-9" x1="-35.68" y1="662.86" x2="81.35" y2="545.84" xlink:href="#linear-gradient-2"/><filter id="luminosity-noclip-10" x="28.33" y="-8508.45" width="142.46" height="32766" filterUnits="userSpaceOnUse" color-interpolation-filters="sRGB"><feFlood flood-color="#fff" result="bg"/><feBlend in="SourceGraphic" in2="bg"/></filter><mask id="mask-10" x="28.33" y="-8508.45" width="142.46" height="32766" maskUnits="userSpaceOnUse"><g class="cls-83"/></mask><linearGradient id="linear-gradient-10" x1="-61.03" y1="433.59" x2="154.21" y2="433.59" xlink:href="#linear-gradient"/><filter id="luminosity-noclip-11" x="28.33" y="179.46" width="142.46" height="43.71" filterUnits="userSpaceOnUse" color-interpolation-filters="sRGB"><feFlood flood-color="#fff" result="bg"/><feBlend in="SourceGraphic" in2="bg"/></filter><mask id="mask-11" x="28.33" y="179.46" width="142.46" height="43.71" maskUnits="userSpaceOnUse"><g class="cls-19"><rect class="cls-20" x="28.33" y="179.46" width="142.46" height="43.71"/></g></mask><linearGradient id="linear-gradient-11" x1="-61.03" y1="433.59" x2="154.21" y2="433.59" xlink:href="#linear-gradient-2"/><filter id="luminosity-noclip-12" x="180.27" y="-8508.45" width="56.13" height="32766" filterUnits="userSpaceOnUse" color-interpolation-filters="sRGB"><feFlood flood-color="#fff" result="bg"/><feBlend in="SourceGraphic" in2="bg"/></filter><mask id="mask-12" x="180.27" y="-8508.45" width="56.13" height="32766" maskUnits="userSpaceOnUse"><g class="cls-82"/></mask><linearGradient id="linear-gradient-12" x1="124.73" y1="584.92" x2="226.45" y2="536.22" xlink:href="#linear-gradient"/><filter id="luminosity-noclip-13" x="180.27" y="76.33" width="56.13" height="27.37" filterUnits="userSpaceOnUse" color-interpolation-filters="sRGB"><feFlood flood-color="#fff" result="bg"/><feBlend in="SourceGraphic" in2="bg"/></filter><mask id="mask-13" x="180.27" y="76.33" width="56.13" height="27.37" maskUnits="userSpaceOnUse"><g class="cls-23"><rect class="cls-24" x="180.27" y="76.33" width="56.13" height="27.37"/></g></mask><linearGradient id="linear-gradient-13" x1="124.73" y1="584.92" x2="226.45" y2="536.22" xlink:href="#linear-gradient-2"/><linearGradient id="linear-gradient-14" x1="322.66" y1="433.25" x2="187.38" y2="556.46" xlink:href="#linear-gradient"/><filter id="luminosity-noclip-15" x="180.27" y="79.62" width="56.13" height="35.83" filterUnits="userSpaceOnUse" color-interpolation-filters="sRGB"><feFlood flood-color="#fff" result="bg"/><feBlend in="SourceGraphic" in2="bg"/></filter><mask id="mask-15" x="180.27" y="79.62" width="56.13" height="35.83" maskUnits="userSpaceOnUse"><g class="cls-27"><rect class="cls-28" x="180.27" y="79.62" width="56.13" height="35.83"/></g></mask><linearGradient id="linear-gradient-15" x1="322.66" y1="433.25" x2="187.38" y2="556.46" xlink:href="#linear-gradient-2"/><filter id="luminosity-noclip-16" x="28.33" y="-8508.45" width="346.7" height="32766" filterUnits="userSpaceOnUse" color-interpolation-filters="sRGB"><feFlood flood-color="#fff" result="bg"/><feBlend in="SourceGraphic" in2="bg"/></filter><mask id="mask-16" x="28.33" y="-8508.45" width="346.7" height="32766" maskUnits="userSpaceOnUse"><g class="cls-81"/></mask><linearGradient id="linear-gradient-16" x1="-1430.27" y1="-43.59" x2="499.48" y2="558.49" xlink:href="#linear-gradient"/><filter id="luminosity-noclip-17" x="28.33" y="25.56" width="346.7" height="287.55" filterUnits="userSpaceOnUse" color-interpolation-filters="sRGB"><feFlood flood-color="#fff" result="bg"/><feBlend in="SourceGraphic" in2="bg"/></filter><mask id="mask-17" x="28.33" y="25.56" width="346.7" height="287.55" maskUnits="userSpaceOnUse"><g class="cls-31"><rect class="cls-32" x="28.33" y="25.56" width="346.7" height="287.55"/></g></mask><linearGradient id="linear-gradient-17" x1="-1430.27" y1="-43.59" x2="499.48" y2="558.49" xlink:href="#linear-gradient-2"/><filter id="luminosity-noclip-18" x="200.78" y="-8508.45" width="38.86" height="32766" filterUnits="userSpaceOnUse" color-interpolation-filters="sRGB"><feFlood flood-color="#fff" result="bg"/><feBlend in="SourceGraphic" in2="bg"/></filter><mask id="mask-18" x="200.78" y="-8508.45" width="38.86" height="32766" maskUnits="userSpaceOnUse"><g class="cls-80"/></mask><linearGradient id="linear-gradient-18" x1="140.34" y1="617.52" x2="242.06" y2="568.82" xlink:href="#linear-gradient"/><filter id="luminosity-noclip-19" x="200.78" y="38.06" width="38.86" height="35.12" filterUnits="userSpaceOnUse" color-interpolation-filters="sRGB"><feFlood flood-color="#fff" result="bg"/><feBlend in="SourceGraphic" in2="bg"/></filter><mask id="mask-19" x="200.78" y="38.06" width="38.86" height="35.12" maskUnits="userSpaceOnUse"><g class="cls-35"><rect class="cls-36" x="200.78" y="38.06" width="38.86" height="35.12"/></g></mask><linearGradient id="linear-gradient-19" x1="140.34" y1="617.52" x2="242.06" y2="568.82" xlink:href="#linear-gradient-2"/><linearGradient id="linear-gradient-20" x1="345.41" y1="458.23" x2="210.13" y2="581.43" xlink:href="#linear-gradient"/><filter id="luminosity-noclip-21" x="200.78" y="52.13" width="38.86" height="21.05" filterUnits="userSpaceOnUse" color-interpolation-filters="sRGB"><feFlood flood-color="#fff" result="bg"/><feBlend in="SourceGraphic" in2="bg"/></filter><mask id="mask-21" x="200.78" y="52.13" width="38.86" height="21.05" maskUnits="userSpaceOnUse"><g class="cls-39"><rect class="cls-40" x="200.78" y="52.13" width="38.86" height="21.05"/></g></mask><linearGradient id="linear-gradient-21" x1="345.41" y1="458.23" x2="210.13" y2="581.43" xlink:href="#linear-gradient-2"/><filter id="luminosity-noclip-22" x="56.45" y="-8508.45" width="114.35" height="32766" filterUnits="userSpaceOnUse" color-interpolation-filters="sRGB"><feFlood flood-color="#fff" result="bg"/><feBlend in="SourceGraphic" in2="bg"/></filter><mask id="mask-22" x="56.45" y="-8508.45" width="114.35" height="32766" maskUnits="userSpaceOnUse"><g class="cls-79"/></mask><linearGradient id="linear-gradient-22" x1="68.18" y1="637.84" x2="121.43" y2="434.07" xlink:href="#linear-gradient"/><filter id="luminosity-noclip-23" x="56.45" y="118.77" width="114.35" height="104.39" filterUnits="userSpaceOnUse" color-interpolation-filters="sRGB"><feFlood flood-color="#fff" result="bg"/><feBlend in="SourceGraphic" in2="bg"/></filter><mask id="mask-23" x="56.45" y="118.77" width="114.35" height="104.39" maskUnits="userSpaceOnUse"><g class="cls-43"><rect class="cls-44" x="56.45" y="118.77" width="114.35" height="104.39"/></g></mask><linearGradient id="linear-gradient-23" x1="68.18" y1="637.84" x2="121.43" y2="434.07" xlink:href="#linear-gradient-2"/><filter id="luminosity-noclip-24" x="28.33" y="-8508.45" width="318.57" height="32766" filterUnits="userSpaceOnUse" color-interpolation-filters="sRGB"><feFlood flood-color="#fff" result="bg"/><feBlend in="SourceGraphic" in2="bg"/></filter><mask id="mask-24" x="28.33" y="-8508.45" width="318.57" height="32766" maskUnits="userSpaceOnUse"><g class="cls-78"/></mask><linearGradient id="linear-gradient-24" x1="-1424.04" y1="-53.52" x2="500.49" y2="556.03" xlink:href="#linear-gradient"/><filter id="luminosity-noclip-25" x="28.33" y="25.56" width="318.57" height="304.83" filterUnits="userSpaceOnUse" color-interpolation-filters="sRGB"><feFlood flood-color="#fff" result="bg"/><feBlend in="SourceGraphic" in2="bg"/></filter><mask id="mask-25" x="28.33" y="25.56" width="318.57" height="304.83" maskUnits="userSpaceOnUse"><g class="cls-47"><rect class="cls-48" x="28.33" y="25.56" width="318.57" height="304.83"/></g></mask><linearGradient id="linear-gradient-25" x1="-1424.04" y1="-53.52" x2="500.49" y2="556.03" xlink:href="#linear-gradient-2"/><filter id="luminosity-noclip-26" x="175.17" y="278.17" width="36.25" height="50.77" filterUnits="userSpaceOnUse" color-interpolation-filters="sRGB"><feFlood flood-color="#fff" result="bg"/><feBlend in="SourceGraphic" in2="bg"/></filter><mask id="mask-26" x="175.17" y="278.17" width="36.25" height="50.77" maskUnits="userSpaceOnUse"><g class="cls-5"><rect class="cls-6" x="175.17" y="278.17" width="36.25" height="50.77"/></g></mask><linearGradient id="linear-gradient-26" x1="215.34" y1="413.59" x2="188.42" y2="313.15" xlink:href="#linear-gradient-2"/><linearGradient id="linear-gradient-27" x1="-203.39" y1="317.31" x2="725.73" y2="566.27" gradientTransform="matrix(1, 0, 0, -1, 0, 634.91)" gradientUnits="userSpaceOnUse"><stop offset="0" stop-color="#ccc"/><stop offset="1" stop-color="#fff"/></linearGradient><mask id="mask-27" x="28.4" y="25.56" width="366.72" height="304.4" maskUnits="userSpaceOnUse"><g id="id0"><g class="cls-3"><rect class="cls-4" x="28.4" y="25.56" width="366.72" height="304.4"/></g></g></mask><linearGradient id="linear-gradient-28" x1="-254.48" y1="315.26" x2="674.64" y2="564.22" xlink:href="#linear-gradient-27"/><mask id="mask-28" x="28.33" y="25.56" width="346.7" height="287.55" maskUnits="userSpaceOnUse"><g id="id2"><g class="cls-33"><rect class="cls-34" x="28.33" y="25.56" width="346.7" height="287.55"/></g></g></mask><linearGradient id="linear-gradient-29" x1="-325.33" y1="306.85" x2="603.8" y2="555.81" xlink:href="#linear-gradient-27"/><mask id="mask-29" x="28.33" y="25.56" width="318.57" height="304.83" maskUnits="userSpaceOnUse"><g id="id4"><g class="cls-49"><rect class="cls-50" x="28.33" y="25.56" width="318.57" height="304.83"/></g></g></mask><linearGradient id="linear-gradient-30" x1="183.18" y1="298.88" x2="183.18" y2="632.69" gradientTransform="matrix(1, 0, 0, -1, 0, 634.91)" gradientUnits="userSpaceOnUse"><stop offset="0" stop-color="#0131b9"/><stop offset="1" stop-color="#66e5fb"/></linearGradient><mask id="mask-30" x="175.17" y="278.17" width="36.25" height="50.77" maskUnits="userSpaceOnUse"><g id="id6"><g class="cls-51"><rect class="cls-52" x="175.17" y="278.17" width="36.25" height="50.77"/></g></g></mask><mask id="mask-31" x="28.33" y="20.95" width="309.69" height="221.78" maskUnits="userSpaceOnUse"><g id="id8"><g class="cls-9"><rect class="cls-10" x="28.33" y="20.95" width="309.69" height="221.78"/></g></g></mask><linearGradient id="linear-gradient-31" x1="67.89" y1="416.56" x2="124.28" y2="680.14" xlink:href="#linear-gradient-30"/><mask id="mask-32" x="75.25" y="88.6" width="122.89" height="49.02" maskUnits="userSpaceOnUse"><g id="id10"><g class="cls-13"><rect class="cls-14" x="75.25" y="88.6" width="122.89" height="49.02"/></g></g></mask><mask id="mask-33" x="1.73" y="-0.49" width="80.07" height="99.97" maskUnits="userSpaceOnUse"><g id="id12"><g class="cls-17"><rect class="cls-18" x="1.73" y="-0.49" width="80.07" height="99.97"/></g></g></mask><mask id="mask-34" x="28.33" y="179.46" width="142.46" height="43.71" maskUnits="userSpaceOnUse"><g id="id14"><g class="cls-21"><rect class="cls-22" x="28.33" y="179.46" width="142.46" height="43.71"/></g></g></mask><linearGradient id="linear-gradient-32" x1="266.72" y1="495.76" x2="165.59" y2="575.48" xlink:href="#linear-gradient-30"/><mask id="mask-35" x="180.27" y="76.33" width="56.13" height="27.37" maskUnits="userSpaceOnUse"><g id="id16"><g class="cls-25"><rect class="cls-26" x="180.27" y="76.33" width="56.13" height="27.37"/></g></g></mask><mask id="mask-36" x="180.27" y="79.62" width="56.13" height="35.83" maskUnits="userSpaceOnUse"><g id="id18"><g class="cls-29"><rect class="cls-30" x="180.27" y="79.62" width="56.13" height="35.83"/></g></g></mask><linearGradient id="linear-gradient-33" x1="289.02" y1="524.05" x2="187.89" y2="603.76" xlink:href="#linear-gradient-30"/><mask id="mask-37" x="200.78" y="38.06" width="38.86" height="35.12" maskUnits="userSpaceOnUse"><g id="id20"><g class="cls-37"><rect class="cls-38" x="200.78" y="38.06" width="38.86" height="35.12"/></g></g></mask><mask id="mask-38" x="200.78" y="52.13" width="38.86" height="21.05" maskUnits="userSpaceOnUse"><g id="id22"><g class="cls-41"><rect class="cls-42" x="200.78" y="52.13" width="38.86" height="21.05"/></g></g></mask><mask id="mask-39" x="56.45" y="118.77" width="114.35" height="104.39" maskUnits="userSpaceOnUse"><g id="id24"><g class="cls-45"><rect class="cls-46" x="56.45" y="118.77" width="114.35" height="104.39"/></g></g></mask></defs><g id="Layer_2" data-name="Layer 2"><g id="Layer_1-2" data-name="Layer 1"><path class="cls-53" d="M28.82,180c10.12,93.25,89.1,165.84,185.05,165.84,102.8,0,186.13-83.33,186.13-186.14,0-66.85-28.09-118.38-62.47-133.6C295.36,88.12,363.14,203.69,264,260.92c-79,45.59-220.32,5.34-235.19-81Z"/><g class="cls-54"><path class="cls-55" d="M29.09,182.16a185.06,185.06,0,0,0,9.64,40.66C72.3,309.68,179.14,344.41,262.23,323.6,388,292.11,386.3,170,394.64,110.78c-9.75-42.42-31.71-73.49-57.11-84.73C295.36,88.12,363.14,203.69,264,260.92c-78.86,45.52-219.93,5.45-235.12-80.62.06.62.14,1.24.2,1.86Z"/></g><path class="cls-56" d="M28.82,180c11.63,107.34,128.5,164.32,230.77,136.92C395.24,280.52,376.37,138,388.63,90.1c-11.33-31.76-30-54.72-51.1-64C295.36,88.12,363.14,203.69,264,260.92c-79,45.59-220.33,5.34-235.19-81l.5,4.09Z"/><g class="cls-57"><path class="cls-55" d="M374.55,60.69c-10.38-16.51-23.19-28.52-37-34.64C295.36,88.12,363.14,203.69,264,260.92c-79,45.59-220.32,5.34-235.19-81,17.53,133.24,257.75,195.43,319.77,45.53C371.12,171,359.91,100,374.55,60.69Z"/></g><path class="cls-58" d="M366.2,49c-8.6-10.55-18.35-18.39-28.67-23C295.36,88.12,363.14,203.69,264,260.92c-79,45.59-220.32,5.34-235.19-81,20.92,129.44,257,183.2,313.17,35.23,21.54-56.75,7.09-129,24.21-166.17Z"/><g class="cls-59"><path class="cls-55" d="M346.42,30.88a63.77,63.77,0,0,0-8.89-4.83C295.36,88.12,363.14,203.69,264,260.92c-79,45.59-220.32,5.34-235.19-81C38.3,238.61,97,281.09,179,287.35c1.79,13.1,1.07,22.11-3.8,41.6,43.5,7,83.1-25.54,96.6-61.75,99.66-56.31,43-169.34,74.65-236.32Z"/></g><path class="cls-60" d="M172.19,187.82C129,249.94,38.86,217.41,28.82,180c10.92,63.37,88.66,100.13,157.61,99.94,2.12,11.1-1.9,33.35-11.26,49.06,53.37,0,79.59-34.53,89.7-68.53,98-57.48,39.07-169,72.66-234.37-26.65-11.8-57.06-1.78-81.1,39.84L172.19,187.82Z"/><g class="cls-61"><path class="cls-62" d="M186.43,279.89c2.12,11.1-1.9,33.35-11.26,49.06,22.88-13.5,32.35-34.63,36.26-50.78a186.46,186.46,0,0,1-25,1.72Z"/></g><g class="cls-63"><path class="cls-64" d="M172.19,187.82C129,249.94,38.86,217.41,28.82,180c12.9,52.09,134.69,99.54,198.33,19.61,28.36-35.63,45.31-78.29,98.51-77.63-.15-35.11-1.79-69.32,11.87-95.88-26.65-11.8-57.06-1.78-81.1,39.84L172.19,187.82Z"/></g><path class="cls-65" d="M28.82,180c9.9,36.93,97.63,69.06,141.49,10.47-36.76,11-95.24-7.24-94.39-61.79,38.72,29.89,108.33,18.73,121.73,8.46-20.41-14.1-33.5-25.28-54.13-39.56C110.3,77.72,75.74,99,75.74,99c8.57-22.37,8.81-42.28-10.38-55.53Q33.68,21.58,2.22,0A98.2,98.2,0,0,0,38.05,98.39c-7.29,21-11.71,58.62-9.23,81.56Z"/><g class="cls-66"><path class="cls-64" d="M197.65,137.09c-20.41-14.1-33.5-25.28-54.13-39.56C110.3,77.72,75.74,99,75.74,99c49.4-12.35,77.26,39.86,121.91,38.1Z"/></g><g class="cls-67"><path class="cls-64" d="M75.74,99c8.57-22.37,8.81-42.28-10.38-55.53Q33.68,21.58,2.22,0C11,53.55,80.75,46.66,75.74,99Z"/></g><g class="cls-68"><path class="cls-62" d="M28.82,180c9.9,36.93,97.63,69.06,141.49,10.47a81.49,81.49,0,0,1-33.11,2.36C98.28,216.74,42.73,205,28.82,180Z"/></g><path class="cls-69" d="M182.18,103a19.17,19.17,0,0,1,10.55-25c8.61-3.49,34,1.69,43.19,3.17-5.55,7.45-20.16,28.88-28.76,32.36a19.17,19.17,0,0,1-25-10.55Z"/><g class="cls-70"><path class="cls-64" d="M182.17,103a19.18,19.18,0,0,1,10.56-25c8.61-3.49,34,1.69,43.19,3.17-1.15,1.54-2.68,3.68-4.46,6.13-11.41-2-30.09-5-37.22-2.15a19.17,19.17,0,0,0-12,18.06l-.1-.23Z"/></g><g class="cls-71"><path class="cls-62" d="M182.17,103a19.35,19.35,0,0,1-1.41-7.09,19.19,19.19,0,0,0,24.82,10.17c6.76-2.75,17.23-16.56,24.09-26,2.47.42,4.62.81,6.25,1.07-5.55,7.45-20.16,28.88-28.76,32.36a19.18,19.18,0,0,1-25-10.55Z"/></g><path class="cls-72" d="M204.73,43.87A14.84,14.84,0,0,1,225.65,42c5.51,4.62,11.19,23.87,13.5,30.68-7.1-1.09-27.06-3.3-32.57-7.92A14.85,14.85,0,0,1,204.73,43.87Z"/><g class="cls-73"><path class="cls-64" d="M204.73,43.87A14.84,14.84,0,0,1,225.65,42c5.51,4.62,11.19,23.87,13.5,30.68l-.89-.13c-2.83-8.49-7-20-11.11-23.4-9.55-8-23.89-1.18-24.37,10.77a14.85,14.85,0,0,1,1.95-16.07Z"/></g><g class="cls-74"><path class="cls-62" d="M236.64,65.08c1,3.08,1.9,5.79,2.51,7.62-7.1-1.09-27.06-3.3-32.57-7.92a14.8,14.8,0,0,1-5.29-12.16A14.7,14.7,0,0,0,205,57.3c5.28,4.43,23.85,6.65,31.63,7.78Z"/></g><circle class="cls-75" cx="274.51" cy="104.05" r="15.62"/><g class="cls-76"><path class="cls-62" d="M92.68,221.91c27.19,3.42,57.18-4.17,77.63-31.49-36.76,11-95.24-7.24-94.39-61.79l-13.44-9.37s-24.7,68.79,30.2,102.65Z"/></g><circle id="Iris" class="cls-77" cx="278.33" cy="94.84" r="5"/></g></g></svg>